<?xml version="1.0" encoding="UTF-8" standalone="no"?>
<!-- Created with Inkscape (http://www.inkscape.org/) -->

<svg
   width="231.51044mm"
   height="59.956512mm"
   viewBox="0 0 231.51044 59.956512"
   version="1.1"
   id="svg5"
   inkscape:version="1.2.1 (9c6d41e410, 2022-07-14)"
   sodipodi:docname="logo.svg"
   inkscape:export-filename="logo.png"
   inkscape:export-xdpi="96"
   inkscape:export-ydpi="96"
   xmlns:inkscape="http://www.inkscape.org/namespaces/inkscape"
   xmlns:sodipodi="http://sodipodi.sourceforge.net/DTD/sodipodi-0.dtd"
   xmlns="http://www.w3.org/2000/svg"
   xmlns:svg="http://www.w3.org/2000/svg">
  <sodipodi:namedview
     id="namedview7"
     pagecolor="#ffffff"
     bordercolor="#000000"
     borderopacity="0.25"
     inkscape:showpageshadow="2"
     inkscape:pageopacity="0.0"
     inkscape:pagecheckerboard="0"
     inkscape:deskcolor="#d1d1d1"
     inkscape:document-units="mm"
     showgrid="false"
     inkscape:zoom="0.52724989"
     inkscape:cx="513.98778"
     inkscape:cy="157.42061"
     inkscape:window-width="1920"
     inkscape:window-height="1017"
     inkscape:window-x="1912"
     inkscape:window-y="-8"
     inkscape:window-maximized="1"
     inkscape:current-layer="layer1" />
  <defs
     id="defs2" />
  <g
     inkscape:label="Layer 1"
     inkscape:groupmode="layer"
     id="layer1"
     transform="translate(-168.0239,-46.022527)">
    <g
       aria-label="TIAGO"
       id="text946"
       style="font-size:81.9078px;line-height:153.577px;font-family:'Colonna MT';-inkscape-font-specification:'Colonna MT, Normal';opacity:1;fill-opacity:0;stroke-width:2;stroke-linecap:square;stroke-miterlimit:4.8;paint-order:markers stroke fill">
      <path
         d="M 184.815,104.66851 V 62.322178 H 168.0239 V 47.333051 h 52.91244 v 14.989127 h -16.7911 v 42.346332 z"
         style="font-family:Montserrat;-inkscape-font-specification:'Montserrat, @wght=900';font-variation-settings:'wght' 900;fill-opacity:1"
         id="path3446" />
      <path
         d="M 219.9327,104.66851 V 47.333051 h 19.33024 v 57.335459 z"
         style="font-family:Montserrat;-inkscape-font-specification:'Montserrat, @wght=900';font-variation-settings:'wght' 900;fill-opacity:1"
         id="path3448" />
      <path
         d="m 315.77605,105.97904 q -6.96217,0 -12.85953,-2.12961 -5.81545,-2.21151 -10.15656,-6.22499 -4.25921,-4.013482 -6.63454,-9.501305 -2.37532,-5.487822 -2.37532,-12.122354 0,-6.634532 2.37532,-12.122354 2.37533,-5.487823 6.71644,-9.501305 4.34112,-4.013482 10.23848,-6.143085 5.97927,-2.21151 13.10525,-2.21151 8.51841,0 15.15294,2.866772 6.71644,2.866773 11.05755,8.19078 L 330.028,67.973817 q -2.70295,-3.112497 -5.89736,-4.668745 -3.11249,-1.638156 -6.96216,-1.638156 -3.1944,0 -5.81545,0.982894 -2.53915,0.982893 -4.34112,2.866773 -1.80197,1.883879 -2.78486,4.504929 -0.9829,2.621049 -0.9829,5.979269 0,3.194404 0.9829,5.897361 0.98289,2.62105 2.78486,4.504929 1.80197,1.88388 4.25921,2.948681 2.53914,0.982894 5.65164,0.982894 3.27631,0 6.38881,-1.064802 3.11249,-1.146709 6.63453,-3.849666 l 10.81183,13.269063 q -5.2421,3.522039 -11.95854,5.405919 -6.71644,1.88388 -13.02334,1.88388 z m 8.19078,-9.747033 V 74.444533 h 16.7911 v 24.244708 z"
         style="font-family:Montserrat;-inkscape-font-specification:'Montserrat, @wght=900';font-variation-settings:'wght' 900;fill-opacity:1"
         id="path3452" />
      <path
         d="m 367.18076,105.97904 q -6.96216,0 -12.94143,-2.21152 -5.89736,-2.21151 -10.23848,-6.224988 -4.34111,-4.09539 -6.79835,-9.583213 -2.37532,-5.487822 -2.37532,-11.958538 0,-6.552624 2.37532,-11.958539 2.45724,-5.487822 6.79835,-9.501304 4.34112,-4.09539 10.23848,-6.306901 5.97927,-2.21151 12.94143,-2.21151 7.04407,0 12.94143,2.21151 5.89736,2.211511 10.23848,6.306901 4.34111,4.013482 6.71644,9.501304 2.45723,5.405915 2.45723,11.958539 0,6.470716 -2.45723,11.958538 -2.37533,5.487823 -6.71644,9.583213 -4.34112,4.013478 -10.23848,6.224988 -5.89736,2.21152 -12.94143,2.21152 z m 0,-15.644394 q 2.70296,0 4.99637,-0.982894 2.37533,-0.982894 4.09539,-2.784865 1.80198,-1.883879 2.78487,-4.504929 0.98289,-2.702957 0.98289,-6.061177 0,-3.35822 -0.98289,-5.979269 -0.98289,-2.702958 -2.78487,-4.504929 -1.72006,-1.88388 -4.09539,-2.866773 -2.29341,-0.982894 -4.99637,-0.982894 -2.70296,0 -5.07828,0.982894 -2.29342,0.982893 -4.09539,2.866773 -1.72007,1.801971 -2.70296,4.504929 -0.9829,2.621049 -0.9829,5.979269 0,3.35822 0.9829,6.061177 0.98289,2.62105 2.70296,4.504929 1.80197,1.801971 4.09539,2.784865 2.37532,0.982894 5.07828,0.982894 z"
         style="font-family:Montserrat;-inkscape-font-specification:'Montserrat, @wght=900';font-variation-settings:'wght' 900;fill-opacity:1"
         id="path3454" />
    </g>
    <path
       style="font-variation-settings:'wght' 900;opacity:1;fill:#000000;fill-opacity:1;stroke:none;stroke-width:7.55905;stroke-linecap:square;stroke-miterlimit:4.8;stroke-opacity:1;paint-order:markers stroke fill"
       d="m 697.31932,202.70275 c 0.94661,-2.47748 5.31898,-13.99011 9.71638,-25.58363 4.3974,-11.59351 8.24847,-21.08854 8.55793,-21.10005 0.49233,-0.0183 19.82616,49.4192 19.82616,50.69644 0,0.27046 -8.95986,0.49174 -19.91079,0.49174 h -19.91079 z"
       id="path3526"
       transform="matrix(0.26458333,0,0,0.26458333,74.10079,25.765273)" />
    <path
       style="font-variation-settings:'wght' 900;opacity:1;fill:#000000;fill-opacity:1;stroke:none;stroke-width:2;stroke-linecap:square;stroke-miterlimit:4.8;stroke-opacity:1;paint-order:markers stroke fill"
       d="m 248.71331,104.66851 c 29.4868,0 29.4868,0 29.4868,0 z"
       id="path3591" />
    <path
       style="font-variation-settings:'wght' 900;opacity:1;fill:#000000;fill-opacity:1;stroke:#000000;stroke-width:0.755903;stroke-linecap:square;stroke-miterlimit:4.8;stroke-dasharray:none;stroke-opacity:1;paint-order:markers stroke fill"
       d="m 660.73983,297.22184 c 0,-0.17193 3.14723,-8.49451 6.99384,-18.49463 l 6.99384,-18.18203 40.98723,0.12099 40.98723,0.12099 7.02131,18.25249 c 3.86172,10.03887 7.02132,18.30701 7.02132,18.37364 0,0.0666 -24.75108,0.12115 -55.00239,0.12115 -30.25131,0 -55.00238,-0.14067 -55.00238,-0.3126 z"
       id="path3658"
       transform="matrix(0.26458333,0,0,0.26458333,74.10079,25.765273)" />
    <path
       style="font-variation-settings:'wght' 900;opacity:1;fill:#000000;fill-opacity:1;stroke:#000000;stroke-width:0.199999;stroke-linecap:square;stroke-miterlimit:4.8;stroke-dasharray:none;stroke-opacity:1;paint-order:markers stroke fill"
       d="m 239.16904,64.051042 -0.004,-16.619247 h 7.27804 7.27804 l -0.17193,0.408413 c -0.57778,1.372466 -14.17774,32.487873 -14.26702,32.641581 -0.0628,0.108058 -0.11113,-6.903678 -0.11331,-16.430747 z"
       id="path3664" />
    <path
       style="font-variation-settings:'wght' 900;opacity:1;fill:#000000;fill-opacity:1;stroke:#000000;stroke-width:0.199999;stroke-linecap:square;stroke-miterlimit:4.8;stroke-dasharray:none;stroke-opacity:1;paint-order:markers stroke fill"
       d="m 281.24166,64.995752 c -1.68472,-3.70578 -4.16243,-9.151212 -5.50604,-12.100959 l -2.44291,-5.363177 16.41931,0.0065 16.41932,0.0065 -1.37233,0.477712 c -2.081,0.7244 -2.65264,0.9606 -4.43592,1.832897 -8.06655,3.945778 -13.839,11.223796 -15.5041,19.547873 -0.18167,0.908196 -0.37169,1.804085 -0.42226,1.990871 -0.0771,0.284752 -0.58671,-0.748665 -3.15507,-6.398176 z"
       id="path3666" />
  </g>
</svg>
